# xmcd
#
# Track frame offsets:
#	150
#	16843
#	34883
#	56526
#	68145
#	103309
#	121986
#	137211
#	155015
#	178819
#	203524
#	222284
#	246869
#	263461
#	282827
#	303039
#	318949
#	337481
#
# Disc length: 4762 seconds
#
# Revision: 0
# Processed by: cddbd v1.5.1PL2 Copyright (c) Steve Scherf et al.
# Submitted via: EasyCDDAExtractor 9.0.0.1
#
DISCID=0a129812
DTITLE=Валерий Леонтьев - Платиновая коллекция [CD1)
DYEAR=2003
DGENRE=Pop
TTITLE0=Каждый хочет любить
TTITLE1=Девять хризантем
TTITLE2=Казанова
TTITLE3=Hafanana
TTITLE4=Танго разбитых сердец
TTITLE5=Охотница Диана
TTITLE6=Ураган "Сюзанна"
TTITLE7=Красотка Лолита
TTITLE8=Маргарита
TTITLE9=Вечерний звон
TTITLE10=Если ты уйдешь
TTITLE11=Мой 20-й век
TTITLE12=Зеленый свет
TTITLE13=Один билет
TTITLE14=Воздуха глоток
TTITLE15=Затмение сердца
TTITLE16=Исчезли солнечные дни
TTITLE17=Ты меня не забывай
EXTD=
EXTT0=
EXTT1=
EXTT2=
EXTT3=
EXTT4=
EXTT5=
EXTT6=
EXTT7=
EXTT8=
EXTT9=
EXTT10=
EXTT11=
EXTT12=
EXTT13=
EXTT14=
EXTT15=
EXTT16=
EXTT17=
PLAYORDER=
